<svg xmlns="http://www.w3.org/2000/svg"
     viewBox="0 0 1024 1536"
     fill="#c4a882">
  <path d="M509 276L429 414L423 402L369 465L409 449L406 489L491 370L490 654L396 573L393 591L347 535L375 597L491 714L491 769L361 666L492 817L489 876L439 840L444 870L487 911L430 964L427 993L490 948L490 1003L364 1120L414 1107L406 1139L489 1049L512 1236L525 1140L531 1167L534 1050L617 1140L609 1104L661 1118L536 1009L537 952L596 1002L591 964L535 912L578 872L584 840L535 875L538 797L653 702L663 664L537 764L537 695L658 586L676 535L536 651L527 356L593 458L597 424L617 488L617 453L653 465L564 364L561 385Z"/>
</svg>
